<?xml version="1.0" encoding="utf-8"?>
<!-- Generator: Adobe Illustrator 22.0.0, SVG Export Plug-In . SVG Version: 6.00 Build 0)  -->
<svg version="1.1" xmlns="http://www.w3.org/2000/svg" xmlns:xlink="http://www.w3.org/1999/xlink" x="0px" y="0px"
	 viewBox="0 0 1440 417" style="enable-background:new 0 0 1440 417;" xml:space="preserve">
<style type="text/css">
	.st0{display:none;}
	.st1{display:inline;fill:#003DB7;stroke:#000000;stroke-miterlimit:10;}
	.st2{fill:none;stroke:#FFFFFF;stroke-width:2;stroke-linejoin:round;stroke-miterlimit:10;}
	.st3{fill:#FFFFFF;}
	.st4{display:inline;}
	.st5{fill:none;stroke:#D6DE23;stroke-width:2;stroke-miterlimit:10;}
	.st6{font-family:'Kanit-Regular';}
	.st7{font-size:14.1974px;}
	.st8{fill:#D6DE23;}
</style>
<g id="Layer_2" class="st0">
	<rect x="-398" y="-187" class="st1" width="2224" height="916"/>
</g>
<g id="step01">
	<g id="_x31_1">
		<g>
			<g>
				<polyline class="st2" points="830.8,269.6 830.8,269.4 972.5,342.8 1059.7,269.6 831,270.4 52.6,525.7 607.6,240.3 831,270.4 
					941.1,261.1 1329,347.4 831,270.4 694.8,422.5 440.4,326.1 140.1,417.6 1178.4,324.3 900.7,412.1 607.6,240.3 1105.3,380.1 
					429.9,251.4 317.3,301.6 619.6,418.3 1487.2,350.1 1796,478.8 -240.2,305.8 317.3,301.6 283.7,452.5 1172.7,419.4 674.7,521 
					78.4,255.7 -108.3,455.5 317.3,301.6 -262,473.3 350.3,452.2 1067.8,521 1411.8,416.2 1242.5,275.4 886.3,547.2 1647.1,296.8 
					1242.5,275.4 				"/>
			</g>
			<g>
				<circle class="st3" cx="830.5" cy="269.6" r="8.5"/>
				<circle class="st3" cx="578.3" cy="376.2" r="8.5"/>
				<circle class="st3" cx="973.1" cy="341.6" r="8.5"/>
				<circle class="st3" cx="317.1" cy="304" r="8.5"/>
				<circle class="st3" cx="185.6" cy="457.1" r="8.5"/>
				<circle class="st3" cx="1346" cy="362.9" r="8.5"/>
				<circle class="st3" cx="720.5" cy="306.6" r="4.3"/>
				<circle class="st3" cx="606.8" cy="240" r="4.3"/>
				<circle class="st3" cx="777.2" cy="287.8" r="4.3"/>
				<circle class="st3" cx="786.7" cy="320" r="4.3"/>
				<circle class="st3" cx="747.5" cy="364" r="4.3"/>
				<circle class="st3" cx="876.4" cy="397.8" r="4.3"/>
				<circle class="st3" cx="930.1" cy="345.9" r="4.3"/>
				<circle class="st3" cx="1178.4" cy="324.3" r="4.3"/>
				<circle class="st3" cx="1059.7" cy="269.6" r="4.3"/>
				<circle class="st3" cx="941.1" cy="261.1" r="4.3"/>
				<circle class="st3" cx="543.1" cy="273.8" r="4.3"/>
				<circle class="st3" cx="429.9" cy="251.4" r="4.3"/>
				<circle class="st3" cx="82.6" cy="333" r="4.3"/>
				<circle class="st3" cx="440.4" cy="326.1" r="4.3"/>
			</g>
		</g>
	</g>
	<g id="_x32_2" class="st0">
		<g class="st4">
			<line class="st5" x1="543.3" y1="271.8" x2="543.3" y2="227.2"/>
			<text transform="matrix(0 -1 1 0 547.3213 225.1465)" class="st3 st6 st7">Social</text>
			<line class="st5" x1="1178.4" y1="325.4" x2="1178.4" y2="280.9"/>
			<text transform="matrix(0 -1 1 0 1182.46 273.8379)" class="st3 st6 st7">Event</text>
			<line class="st5" x1="1059.7" y1="269.6" x2="1059.7" y2="208.1"/>
			<text transform="matrix(0 -1 1 0 1063.7256 202.1416)" class="st3 st6 st7">TVC</text>
			<line class="st5" x1="875.6" y1="398.3" x2="875.6" y2="239.4"/>
			<text transform="matrix(0 -1 1 0 880.6826 233.3174)" class="st3 st6 st7">Advertising</text>
			<line class="st5" x1="720.5" y1="306.6" x2="720.5" y2="165.9"/>
			<text transform="matrix(0 -1 1 0 724.5977 161.2227)" class="st3 st6 st7">Print</text>
			<line class="st5" x1="317.1" y1="305.1" x2="317.1" y2="229.2"/>
			<text transform="matrix(0 -1 1 0 321.7852 225.2432)" class="st3 st6 st7">POS</text>
			<g>
				<circle class="st8" cx="830.5" cy="269.6" r="8.5"/>
				<circle class="st8" cx="578.3" cy="376.2" r="8.5"/>
				<circle class="st8" cx="973.1" cy="341.6" r="8.5"/>
				<circle class="st8" cx="317.1" cy="304" r="8.5"/>
				<circle class="st8" cx="185.6" cy="457.1" r="8.5"/>
				<circle class="st8" cx="1346" cy="362.9" r="8.5"/>
				<circle class="st8" cx="720.5" cy="306.6" r="4.3"/>
				<circle class="st8" cx="606.8" cy="240" r="4.3"/>
				<circle class="st8" cx="777.2" cy="287.8" r="4.3"/>
				<circle class="st8" cx="786.7" cy="320" r="4.3"/>
				<circle class="st8" cx="747.5" cy="364" r="4.3"/>
				<circle class="st8" cx="876.4" cy="397.8" r="4.3"/>
				<circle class="st8" cx="930.1" cy="345.9" r="4.3"/>
				<circle class="st8" cx="1178.4" cy="324.3" r="4.3"/>
				<circle class="st8" cx="1059.7" cy="269.6" r="4.3"/>
				<circle class="st8" cx="941.1" cy="261.1" r="4.3"/>
				<circle class="st8" cx="543.1" cy="273.8" r="4.3"/>
				<circle class="st8" cx="429.9" cy="251.4" r="4.3"/>
				<circle class="st8" cx="82.6" cy="333" r="4.3"/>
				<circle class="st8" cx="440.4" cy="326.1" r="4.3"/>
			</g>
		</g>
	</g>
</g>
</svg>
